HIERARCHY
ROOT Hips
{
  OFFSET 0 0 0
  CHANNELS 6 Xposition Yposition Zposition Zrotation Yrotation Xrotation
  JOINT LeftThigh
  {
    OFFSET 8.409438 0 -5.917753
    CHANNELS 3 Zrotation Yrotation Xrotation
    JOINT LeftLeg
    {
      OFFSET 0 0 -42.358652
      CHANNELS 3 Zrotation Yrotation Xrotation
      JOINT LeftFoot
      {
        OFFSET 0 0 -39.357303
        CHANNELS 3 Zrotation Yrotation Xrotation
      }
    }
  }
  JOINT RightThigh
  {
    OFFSET -8.409438 0 -5.917753
    CHANNELS 3 Zrotation Yrotation Xrotation
    JOINT RightLeg
    {
      OFFSET 0 0 -42.358652
      CHANNELS 3 Zrotation Yrotation Xrotation
      JOINT RightFoot
      {
        OFFSET 0 0 -39.357303
        CHANNELS 3 Zrotation Yrotation Xrotation
      }
    }
  }
  JOINT SpineLow
  {
    OFFSET 0 0 4.719101
    CHANNELS 3 Zrotation Yrotation Xrotation
    JOINT SpineMid
    {
      OFFSET 0 0 12.899191
      CHANNELS 3 Zrotation Yrotation Xrotation
      JOINT Chest
      {
        OFFSET 0 0 12.899191
        CHANNELS 3 Zrotation Yrotation Xrotation
        JOINT LeftShoulder
        {
          OFFSET 7.550562 1.41573 9.438202
          CHANNELS 3 Zrotation Yrotation Xrotation
          JOINT LeftArm
          {
            OFFSET 9.155056 0 4.247191
            CHANNELS 3 Zrotation Yrotation Xrotation
            JOINT LeftForearm
            {
              OFFSET 0 0 25.771955
              CHANNELS 3 Zrotation Yrotation Xrotation
              JOINT LeftHand
              {
                OFFSET 0 0 25.197169
                CHANNELS 3 Zrotation Yrotation Xrotation
              }
            }
          }
        }
        JOINT RightShoulder
        {
          OFFSET -7.550562 1.41573 9.438202
          CHANNELS 3 Zrotation Yrotation Xrotation
          JOINT RightArm
          {
            OFFSET -9.155056 0 4.247191
            CHANNELS 3 Zrotation Yrotation Xrotation
            JOINT RightForearm
            {
              OFFSET 0 0 -25.771955
              CHANNELS 3 Zrotation Yrotation Xrotation
              JOINT RightHand
              {
                OFFSET 0 0 -25.197169
                CHANNELS 3 Zrotation Yrotation Xrotation
              }
            }
          }
        }
        JOINT Neck
        {
          OFFSET 0 0 15.101124
          CHANNELS 3 Zrotation Yrotation Xrotation
          JOINT Head
          {
            OFFSET 0 0 11.325843
            CHANNELS 3 Zrotation Yrotation Xrotation
            End Site
            {
              OFFSET 0 0 14.157303
            }
          }
        }
      }
    }
  }
}
MOTION
Frames: 11
Frame Time: 0.0
0.0  93.25843  0.0  -3.302624  32.699762  -96.221956  20.263557  -20.114859  25.610789  -3.545453  0.662203  5.651738  5.403485  1.516055  -0.066723  -21.829043  -8.625571  -32.387877  -5.357902  19.515218  43.310408  -1.821198  0.779408  2.116054  0.567421  -0.108812  1.295999  1.544657  -0.327709  3.539734  1.544657  -0.327709  3.539734  -17.130304  20.342424  10.046957  136.632132  57.144142  -159.018664  -22.793175  3.913732  80.12948  73.204379  -4.709845  -9.762757  9.316826  -12.362758  14.065852  51.251142  69.164266  7.580772  -26.740098  -36.620718  -108.364867  59.091539  3.100144  -12.112704  -18.042234  0.49135  8.805166  -13.542026  0.108544  6.625212  
0.0  93.25843  0.0  -3.175715  31.63466  -96.321572  20.231053  -19.762419  26.520831  -3.296759  0.482015  4.601965  6.015064  1.522032  0.418822  -21.992809  -8.947023  -32.237191  -6.954355  20.527693  42.795801  -2.253808  0.753772  2.128564  0.477234  -0.13578  1.301439  1.296746  -0.396676  3.554553  1.296746  -0.396676  3.554552  -17.342195  20.359511  9.664303  137.109312  58.458831  -158.74695  -23.714368  3.509889  80.89793  73.498451  -4.945822  -10.2955  9.133624  -12.144043  14.238772  57.296246  67.450395  11.965005  -26.148104  -35.671587  -109.990757  59.594011  3.083823  -12.495588  -17.211728  0.745793  8.655328  -12.922263  0.315819  6.518561  
0.0  93.25843  0.0  -3.154349  30.50375  -96.336803  20.643798  -19.620082  27.249405  -2.317226  0.379519  4.116529  5.775839  1.459728  0.523831  -22.253909  -9.514162  -31.993031  -8.821008  21.775619  41.847008  -2.537795  0.76074  2.209478  0.42645  -0.185065  1.298699  1.15536  -0.528565  3.546545  1.15536  -0.528565  3.546544  -17.802581  20.334163  9.133787  137.607841  59.882918  -158.308167  -24.607447  3.011204  81.661802  73.687087  -5.072023  -10.963171  8.641127  -11.875897  14.283499  62.369336  65.680981  15.415926  -25.733379  -34.422599  -111.316894  60.219675  3.123714  -12.827705  -16.428227  1.030479  8.545873  -12.338115  0.543613  6.442473  
0.0  93.25843  0.0  -3.273298  28.986173  -96.456999  21.432919  -19.804764  27.889355  -1.383845  0.3814  3.864856  5.327402  1.303177  0.737907  -22.377579  -10.388143  -31.328986  -10.767789  23.030286  40.442533  -2.762151  0.851926  2.24602  0.439219  -0.252388  1.292426  1.186725  -0.713091  3.528126  1.186725  -0.713091  3.528126  -19.793447  20.132352  8.023969  139.845798  61.045369  -157.381436  -25.506925  2.628661  82.407874  73.780256  -5.181363  -11.718027  8.063182  -11.752064  14.285386  67.167038  63.729877  18.656797  -25.643647  -32.858722  -112.387595  60.73198  3.200656  -13.056272  -16.19302  1.365251  8.363545  -12.165576  0.80308  6.313815  
0.0  93.25843  0.0  -3.403298  27.617315  -96.477796  21.930588  -20.041873  28.354618  -0.759883  0.432256  3.964138  4.913514  1.368715  0.632413  -22.864623  -11.465511  -30.382615  -12.550989  24.048639  38.578429  -2.974799  0.994361  2.250169  0.424428  -0.326185  1.265436  1.142768  -0.913485  3.453298  1.142768  -0.913485  3.453298  -20.334905  19.977571  7.44549  140.46943  62.409339  -156.713724  -26.517979  2.486308  83.161409  73.884882  -5.40721  -12.432117  7.356292  -11.512621  14.320182  71.141134  61.737557  21.166269  -25.244686  -31.38826  -113.591637  61.148356  3.229491  -13.116345  -15.422977  1.625102  8.425332  -11.591472  1.007105  6.364416  
0.0  93.25843  0.0  -3.609656  25.76991  -96.633994  22.674303  -20.395776  28.804216  -0.159999  0.604334  4.169042  4.58372  1.481615  0.751912  -23.126229  -12.7867  -28.93638  -13.893767  24.666488  36.43013  -3.315941  1.186376  2.278154  0.426308  -0.415906  1.237346  1.14375  -1.158264  3.375027  1.14375  -1.158264  3.375027  -20.609406  19.86564  6.890149  140.997786  63.705383  -156.189188  -27.684268  2.45572  83.95773  74.046521  -5.74972  -12.975214  7.123771  -11.309089  14.568212  74.235826  59.888518  23.224006  -24.496801  -30.115988  -114.952318  61.37572  3.189915  -13.192209  -14.543414  1.888914  8.551598  -10.935541  1.214212  6.462431  
0.0  93.25843  0.0  -3.653411  24.194569  -96.63996  22.893196  -20.537088  29.139916  0.367691  1.014022  4.71905  4.584494  1.410321  0.952463  -23.745938  -13.965197  -27.483299  -14.797153  24.896447  34.294055  -3.558126  1.432179  2.321143  0.359502  -0.491924  1.185361  0.958407  -1.361839  3.23309  0.958407  -1.361839  3.233091  -20.695319  19.890126  6.386894  141.513479  65.031506  -155.679582  -28.844954  2.437557  84.854392  74.301574  -6.122999  -13.377791  6.82437  -10.948279  15.01069  76.739707  58.206379  24.757923  -23.07287  -29.282997  -116.559005  61.911443  3.150217  -13.393106  -13.603753  2.160271  8.709821  -10.234858  1.427459  6.583571  
0.0  93.25843  0.0  -3.6957  22.347073  -96.787861  23.20778  -20.778809  29.385882  1.108354  1.357595  5.798562  4.491144  1.438651  1.117169  -24.218438  -15.057227  -25.798701  -15.166147  24.759011  32.363392  -3.422549  1.689541  2.407582  0.276219  -0.560254  1.150915  0.728282  -1.544122  3.13999  0.728282  -1.544122  3.13999  -20.528177  19.905997  5.85715  142.337963  66.349009  -155.020697  -29.849514  2.34206  85.845641  74.64236  -6.445831  -13.718217  6.714518  -10.577896  15.730561  78.687034  56.763388  25.709506  -21.505284  -28.42605  -118.045466  62.67997  3.119261  -13.860983  -12.514329  2.424712  8.884285  -9.421959  1.637803  6.715235  
0.0  93.25843  0.0  -3.652531  20.821467  -96.865983  23.116177  -20.775664  29.492607  2.011797  1.570815  7.241293  4.280202  1.475553  1.29433  -24.989398  -15.991347  -24.036949  -14.542626  24.281535  30.905912  -3.321829  1.923453  2.396463  0.131461  -0.623678  1.116445  0.330525  -1.710407  3.048917  0.330525  -1.710407  3.048917  -20.397638  20.010796  5.186482  143.496906  67.676012  -154.184205  -30.643175  2.161246  86.917993  75.039451  -6.680534  -14.087583  6.590018  -9.996411  16.590173  80.088305  55.448044  26.061658  -20.196278  -27.231586  -119.22864  63.632598  3.119896  -14.502479  -11.404353  2.757389  9.032935  -8.594608  1.900744  6.827698  
0.0  93.25843  0.0  -3.608464  19.215501  -97.002614  23.07098  -20.734938  29.518954  2.833598  1.687847  9.006296  4.040846  1.464456  1.456074  -25.316074  -16.709746  -22.294078  -13.301597  23.720708  29.884872  -3.253158  2.154447  2.144907  -0.014598  -0.686867  1.097068  -0.07107  -1.876375  2.999881  -0.07107  -1.876375  2.999881  -20.24725  20.101925  4.453715  144.975716  68.987646  -153.047457  -31.281305  1.921647  87.96232  75.506626  -6.805166  -14.53276  6.491012  -9.42864  17.243229  81.176455  53.992328  26.30542  -19.23848  -25.542489  -120.177471  64.694293  3.206782  -15.092029  -10.25911  3.133537  9.180915  -7.741587  2.197361  6.938927  
0.0  93.25843  0.0  -3.526079  17.555131  -97.144881  23.170819  -20.697911  29.416115  3.315786  1.734625  11.065096  3.865993  1.424308  1.625501  -24.870774  -17.108718  -20.723516  -11.688122  23.026476  29.227296  -3.316456  2.056018  1.915843  -0.167458  -0.742854  1.083255  -0.491042  -2.022536  2.966951  -0.491042  -2.022536  2.966951  -20.025179  20.224774  3.775219  146.779212  70.319577  -151.587809  -31.826888  1.710263  88.945724  76.055461  -6.828189  -15.031661  6.490052  -8.862463  17.738941  82.101696  52.510524  26.620618  -18.714535  -23.505703  -120.880417  65.743151  3.399073  -15.543521  -9.042469  3.542785  9.357984  -6.835887  2.520004  7.07055  
